HIERARCHY
ROOT newVegas:Hips
{
	OFFSET 0.000000 96.479958 0.000000
	CHANNELS 6 Xposition Yposition Zposition Xrotation Yrotation Zrotation
	JOINT newVegas:Pelvis
	{
		OFFSET 0.000000 0.000000 0.000000
		CHANNELS 3 Xrotation Yrotation Zrotation
		JOINT newVegas:LeftUpLeg
		{
			OFFSET 18.735201 -5.666702 -4.541200
			CHANNELS 3 Xrotation Yrotation Zrotation
			JOINT newVegas:LeftLeg
			{
				OFFSET -0.021200 -31.938179 0.493100
				CHANNELS 3 Xrotation Yrotation Zrotation
				JOINT newVegas:LeftFoot
				{
					OFFSET 0.021200 -31.938179 -4.336299
					CHANNELS 3 Xrotation Yrotation Zrotation
					JOINT newVegas:LeftToeBase
					{
						OFFSET 0.943001 -26.722000 15.023500
						CHANNELS 3 Xrotation Yrotation Zrotation
						End Site
						{
							OFFSET 0.000000 30.670183 0.000000
						}
					}
				}
				JOINT newVegas:Left_PantLeg
				{
					OFFSET 0.663870 -9.044666 -1.108900
					CHANNELS 3 Xrotation Yrotation Zrotation
					End Site
					{
						OFFSET 1.415995 20.635357 0.000000
					}
				}
			}
		}
		JOINT newVegas:RightUpLeg
		{
			OFFSET -18.735201 -5.666702 -4.541200
			CHANNELS 3 Xrotation Yrotation Zrotation
			JOINT newVegas:RightLeg
			{
				OFFSET 0.018946 -31.938133 0.493100
				CHANNELS 3 Xrotation Yrotation Zrotation
				JOINT newVegas:RightFoot
				{
					OFFSET -0.018946 -31.938126 -4.336299
					CHANNELS 3 Xrotation Yrotation Zrotation
					JOINT newVegas:RightToeBase
					{
						OFFSET -0.943001 -26.722004 15.023500
						CHANNELS 3 Xrotation Yrotation Zrotation
						End Site
						{
							OFFSET 0.000000 30.670187 0.000000
						}
					}
				}
				JOINT newVegas:Right_PantLeg
				{
					OFFSET -0.661674 -9.044716 -1.108900
					CHANNELS 3 Xrotation Yrotation Zrotation
					End Site
					{
						OFFSET -1.415958 20.635269 0.000000
					}
				}
			}
		}
	}
	JOINT newVegas:Spine
	{
		OFFSET 0.000000 10.199997 -0.299500
		CHANNELS 3 Xrotation Yrotation Zrotation
		JOINT newVegas:Spine1
		{
			OFFSET 0.000000 11.900002 -1.516600
			CHANNELS 3 Xrotation Yrotation Zrotation
			JOINT newVegas:Spine2
			{
				OFFSET 0.000000 13.600006 -2.842500
				CHANNELS 3 Xrotation Yrotation Zrotation
				JOINT newVegas:Neck
				{
					OFFSET 0.000000 9.624100 -2.890100
					CHANNELS 3 Xrotation Yrotation Zrotation
					JOINT newVegas:Head
					{
						OFFSET 0.000000 14.068802 -1.351900
						CHANNELS 3 Xrotation Yrotation Zrotation
						JOINT newVegas:Hair_Back
						{
							OFFSET 0.000000 3.231903 -17.524799
							CHANNELS 3 Xrotation Yrotation Zrotation
							End Site
							{
								OFFSET 0.000000 19.849884 0.000000
							}
						}
						JOINT newVegas:Hair_Front
						{
							OFFSET 0.000000 31.260406 4.573800
							CHANNELS 3 Xrotation Yrotation Zrotation
							JOINT newVegas:Hair_Front1
							{
								OFFSET 0.000000 2.284103 11.993300
								CHANNELS 3 Xrotation Yrotation Zrotation
								JOINT newVegas:Hair_Front2
								{
									OFFSET 0.000000 2.284103 11.993300
									CHANNELS 3 Xrotation Yrotation Zrotation
									End Site
									{
										OFFSET 0.000000 12.208862 0.000000
									}
								}
							}
						}
						JOINT newVegas:Jowel
						{
							OFFSET 0.000000 -7.458206 6.864100
							CHANNELS 3 Xrotation Yrotation Zrotation
							End Site
							{
								OFFSET 0.000000 19.849884 0.000000
							}
						}
					}
				}
				JOINT newVegas:LeftShoulder
				{
					OFFSET 15.263000 10.923401 -0.547700
					CHANNELS 3 Xrotation Yrotation Zrotation
					JOINT newVegas:LeftArm
					{
						OFFSET 25.438599 -2.830597 -13.032500
						CHANNELS 3 Xrotation Yrotation Zrotation
						JOINT newVegas:LeftForeArm
						{
							OFFSET 29.960503 0.000000 0.000000
							CHANNELS 3 Xrotation Yrotation Zrotation
							JOINT newVegas:LeftHand
							{
								OFFSET 27.849251 0.000000 0.000000
								CHANNELS 3 Xrotation Yrotation Zrotation
								JOINT newVegas:LeftHandThumb1
								{
									OFFSET 4.487587 -3.305161 6.305391
									CHANNELS 3 Xrotation Yrotation Zrotation
									JOINT newVegas:LeftHandThumb2
									{
										OFFSET 5.480453 -3.164139 3.164143
										CHANNELS 3 Xrotation Yrotation Zrotation
										JOINT newVegas:LeftHandThumb3
										{
											OFFSET 5.159721 -2.978973 2.978967
											CHANNELS 3 Xrotation Yrotation Zrotation
											End Site
											{
												OFFSET 2.494507 5.926697 1.738678
											}
										}
									}
								}
								JOINT newVegas:LeftHandIndex1
								{
									OFFSET 18.578728 -0.527832 5.208049
									CHANNELS 3 Xrotation Yrotation Zrotation
									JOINT newVegas:LeftHandIndex2
									{
										OFFSET 3.192009 0.000000 0.000000
										CHANNELS 3 Xrotation Yrotation Zrotation
										JOINT newVegas:LeftHandIndex3
										{
											OFFSET 3.835129 0.000000 0.000000
											CHANNELS 3 Xrotation Yrotation Zrotation
											End Site
											{
												OFFSET -0.034599 3.816971 0.371180
											}
										}
									}
								}
								JOINT newVegas:LeftHandMiddle1
								{
									OFFSET 18.476105 0.000000 0.000000
									CHANNELS 3 Xrotation Yrotation Zrotation
									JOINT newVegas:LeftHandMiddle2
									{
										OFFSET 3.324875 0.000000 0.000000
										CHANNELS 3 Xrotation Yrotation Zrotation
										JOINT newVegas:LeftHandMiddle3
										{
											OFFSET 4.596550 0.000000 0.000000
											CHANNELS 3 Xrotation Yrotation Zrotation
											End Site
											{
												OFFSET 0.057701 4.578827 0.399218
											}
										}
									}
								}
								JOINT newVegas:LeftHandRing1
								{
									OFFSET 17.732719 0.121887 -4.201567
									CHANNELS 3 Xrotation Yrotation Zrotation
									JOINT newVegas:LeftHandRing2
									{
										OFFSET 2.733170 0.000000 0.000000
										CHANNELS 3 Xrotation Yrotation Zrotation
										JOINT newVegas:LeftHandRing3
										{
											OFFSET 3.178268 0.000000 0.000000
											CHANNELS 3 Xrotation Yrotation Zrotation
											End Site
											{
												OFFSET 0.119102 3.170624 0.185394
											}
										}
									}
								}
								JOINT newVegas:LeftHandPinky1
								{
									OFFSET 15.989624 -0.606689 -7.535461
									CHANNELS 3 Xrotation Yrotation Zrotation
									JOINT newVegas:LeftHandPinky2
									{
										OFFSET 2.538986 0.000000 0.000000
										CHANNELS 3 Xrotation Yrotation Zrotation
										JOINT newVegas:LeftHandPinky3
										{
											OFFSET 2.593102 0.000000 0.000000
											CHANNELS 3 Xrotation Yrotation Zrotation
											End Site
											{
												OFFSET -0.150902 2.584198 0.152708
											}
										}
									}
								}
							}
							JOINT newVegas:Left_Sleeve
							{
								OFFSET 0.267448 -0.649796 0.577675
								CHANNELS 3 Xrotation Yrotation Zrotation
								End Site
								{
									OFFSET 0.000000 15.991241 0.000000
								}
							}
							JOINT newVegas:Left_CapeC
							{
								OFFSET 15.715958 -8.608795 -6.935905
								CHANNELS 3 Xrotation Yrotation Zrotation
								JOINT newVegas:Left_CapeC1
								{
									OFFSET 0.000000 -8.688499 0.000000
									CHANNELS 3 Xrotation Yrotation Zrotation
									End Site
									{
										OFFSET 0.000000 8.688499 0.000000
									}
								}
							}
						}
						JOINT newVegas:Left_CapeB
						{
							OFFSET 26.118385 -8.608795 -7.079235
							CHANNELS 3 Xrotation Yrotation Zrotation
							JOINT newVegas:Left_CapeB1
							{
								OFFSET 0.000000 -8.688499 0.000000
								CHANNELS 3 Xrotation Yrotation Zrotation
								End Site
								{
									OFFSET 0.000000 8.688499 0.000000
								}
							}
						}
						JOINT newVegas:Left_CapeA
						{
							OFFSET 5.115639 -8.608795 -10.395809
							CHANNELS 3 Xrotation Yrotation Zrotation
							JOINT newVegas:Left_CapeA1
							{
								OFFSET 0.000000 -8.688499 0.000000
								CHANNELS 3 Xrotation Yrotation Zrotation
								End Site
								{
									OFFSET 0.000000 8.688499 0.000000
								}
							}
						}
					}
				}
				JOINT newVegas:RightShoulder
				{
					OFFSET -15.263000 10.923401 -0.547700
					CHANNELS 3 Xrotation Yrotation Zrotation
					JOINT newVegas:RightArm
					{
						OFFSET -25.438599 -2.830597 -13.032500
						CHANNELS 3 Xrotation Yrotation Zrotation
						JOINT newVegas:RightForeArm
						{
							OFFSET -29.960503 0.000000 0.000000
							CHANNELS 3 Xrotation Yrotation Zrotation
							JOINT newVegas:RightHand
							{
								OFFSET -27.849251 0.000000 0.000000
								CHANNELS 3 Xrotation Yrotation Zrotation
								JOINT newVegas:RightHandThumb1
								{
									OFFSET -4.487587 -3.305161 6.305391
									CHANNELS 3 Xrotation Yrotation Zrotation
									JOINT newVegas:RightHandThumb2
									{
										OFFSET -5.480453 -3.164139 3.164143
										CHANNELS 3 Xrotation Yrotation Zrotation
										JOINT newVegas:RightHandThumb3
										{
											OFFSET -5.159721 -2.978973 2.978967
											CHANNELS 3 Xrotation Yrotation Zrotation
											End Site
											{
												OFFSET -2.494507 5.926697 1.738678
											}
										}
									}
								}
								JOINT newVegas:RightHandIndex1
								{
									OFFSET -18.578728 -0.527832 5.208049
									CHANNELS 3 Xrotation Yrotation Zrotation
									JOINT newVegas:RightHandIndex2
									{
										OFFSET -3.192009 0.000000 0.000000
										CHANNELS 3 Xrotation Yrotation Zrotation
										JOINT newVegas:RightHandIndex3
										{
											OFFSET -3.835129 0.000000 0.000000
											CHANNELS 3 Xrotation Yrotation Zrotation
											End Site
											{
												OFFSET 0.034599 3.816971 0.371180
											}
										}
									}
								}
								JOINT newVegas:RightHandMiddle1
								{
									OFFSET -18.476105 0.000000 0.000000
									CHANNELS 3 Xrotation Yrotation Zrotation
									JOINT newVegas:RightHandMiddle2
									{
										OFFSET -3.324875 0.000000 0.000000
										CHANNELS 3 Xrotation Yrotation Zrotation
										JOINT newVegas:RightHandMiddle3
										{
											OFFSET -4.596550 0.000000 0.000000
											CHANNELS 3 Xrotation Yrotation Zrotation
											End Site
											{
												OFFSET -0.057701 4.578827 0.399218
											}
										}
									}
								}
								JOINT newVegas:RightHandRing1
								{
									OFFSET -17.732719 0.121887 -4.201567
									CHANNELS 3 Xrotation Yrotation Zrotation
									JOINT newVegas:RightHandRing2
									{
										OFFSET -2.733170 0.000000 0.000000
										CHANNELS 3 Xrotation Yrotation Zrotation
										JOINT newVegas:RightHandRing3
										{
											OFFSET -3.178268 0.000000 0.000000
											CHANNELS 3 Xrotation Yrotation Zrotation
											End Site
											{
												OFFSET -0.119102 3.170624 0.185394
											}
										}
									}
								}
								JOINT newVegas:RightHandPinky1
								{
									OFFSET -15.989624 -0.606689 -7.535461
									CHANNELS 3 Xrotation Yrotation Zrotation
									JOINT newVegas:RightHandPinky2
									{
										OFFSET -2.538986 0.000000 0.000000
										CHANNELS 3 Xrotation Yrotation Zrotation
										JOINT newVegas:RightHandPinky3
										{
											OFFSET -2.593102 0.000000 0.000000
											CHANNELS 3 Xrotation Yrotation Zrotation
											End Site
											{
												OFFSET 0.150902 2.584198 0.152708
											}
										}
									}
								}
							}
							JOINT newVegas:Right_CapeC
							{
								OFFSET -15.715958 -8.608795 -6.935905
								CHANNELS 3 Xrotation Yrotation Zrotation
								JOINT newVegas:Right_CapeC1
								{
									OFFSET 0.000000 -8.688499 0.000000
									CHANNELS 3 Xrotation Yrotation Zrotation
									End Site
									{
										OFFSET 0.000000 8.688499 0.000000
									}
								}
							}
							JOINT newVegas:Right_Sleeve
							{
								OFFSET -0.267448 -0.649994 0.577675
								CHANNELS 3 Xrotation Yrotation Zrotation
								End Site
								{
									OFFSET 0.000000 15.991302 0.000000
								}
							}
						}
						JOINT newVegas:Right_CapeA
						{
							OFFSET -5.115540 -8.608795 -10.395824
							CHANNELS 3 Xrotation Yrotation Zrotation
							JOINT newVegas:Right_CapeA1
							{
								OFFSET 0.000000 -8.688499 0.000000
								CHANNELS 3 Xrotation Yrotation Zrotation
								End Site
								{
									OFFSET 0.000000 8.688499 0.000000
								}
							}
						}
						JOINT newVegas:Right_CapeB
						{
							OFFSET -26.118187 -8.608795 -7.079266
							CHANNELS 3 Xrotation Yrotation Zrotation
							JOINT newVegas:Right_CapeB1
							{
								OFFSET 0.000000 -8.688499 0.000000
								CHANNELS 3 Xrotation Yrotation Zrotation
								End Site
								{
									OFFSET 0.000000 8.688499 0.000000
								}
							}
						}
					}
				}
				JOINT newVegas:Left_Collar
				{
					OFFSET 18.625099 8.655502 8.828100
					CHANNELS 3 Xrotation Yrotation Zrotation
					JOINT newVegas:Left_Collar1
					{
						OFFSET 14.783401 10.540405 -1.259500
						CHANNELS 3 Xrotation Yrotation Zrotation
						End Site
						{
							OFFSET 0.000000 18.199875 0.000000
						}
					}
				}
				JOINT newVegas:Collar_Back
				{
					OFFSET 0.000000 15.630707 -20.132601
					CHANNELS 3 Xrotation Yrotation Zrotation
					End Site
					{
						OFFSET 0.000000 22.523010 0.000000
					}
				}
				JOINT newVegas:Left_Peck
				{
					OFFSET 17.239599 -5.132599 25.482599
					CHANNELS 3 Xrotation Yrotation Zrotation
					End Site
					{
						OFFSET 0.000000 22.523010 0.000000
					}
				}
				JOINT newVegas:Right_Peck
				{
					OFFSET -17.239599 -5.132202 25.482599
					CHANNELS 3 Xrotation Yrotation Zrotation
					End Site
					{
						OFFSET 0.000000 22.523010 0.000000
					}
				}
				JOINT newVegas:Right_Collar
				{
					OFFSET -18.625099 8.655792 8.828100
					CHANNELS 3 Xrotation Yrotation Zrotation
					JOINT newVegas:Right_Collar1
					{
						OFFSET -14.783401 10.539993 -1.259500
						CHANNELS 3 Xrotation Yrotation Zrotation
						End Site
						{
							OFFSET 0.000000 18.199631 0.000000
						}
					}
				}
			}
		}
		JOINT newVegas:Belly
		{
			OFFSET 0.000000 -6.540398 9.014299
			CHANNELS 3 Xrotation Yrotation Zrotation
			End Site
			{
				OFFSET 0.000000 11.566666 0.000000
			}
		}
	}
	JOINT newVegas:ElvisFacialAnim_Joint
	{
		OFFSET 1.000000 -95.330101 -8.825800
		CHANNELS 3 Xrotation Yrotation Zrotation
		End Site
		{
			OFFSET 0.000000 35.315800 0.000000
		}
	}
}
MOTION
Frames: 4
Frame Time: 0.033333
0.785086 72.800186 3.424595 26.759272 12.809501 0.028145 0.000001 0.000001 0.000000 -101.071971 -6.048953 -0.407013 82.326333 14.056098 2.182216 12.673393 -0.393621 -3.958641 0.000002 -0.000001 -0.000000 -0.000001 -0.000001 -0.000002 -90.180518 -10.196190 -3.157420 85.178558 -24.244154 6.974808 -23.429856 2.665924 -10.074555 0.000000 -0.000000 0.000000 0.000003 -0.000001 -0.000001 23.202883 3.201150 -0.567886 14.477730 0.203035 -0.237790 13.764984 0.192741 -0.187598 -1.371648 -1.268319 -0.200306 -1.371653 -1.268322 -0.200306 -0.000000 -0.000001 -0.000000 -1.371605 -1.268309 -0.200307 -1.371649 -1.268331 -0.200303 -0.000001 -0.000001 0.000000 -0.000000 -0.000001 -0.000000 -1.808736 7.865984 13.600664 -6.471985 -29.031244 -70.584971 -0.582664 -28.043908 -1.331993 -19.075064 -17.071042 -20.936996 -9.331550 3.471378 -7.771896 -3.526419 5.992580 -11.731759 -0.000000 0.000000 -0.000004 2.950641 -12.213427 7.303450 -0.001896 -0.013104 -14.886858 -0.000001 -0.000000 0.000000 -0.428359 -3.917221 -6.247942 -0.001115 -0.009766 -15.259828 -0.000001 -0.000001 0.000007 3.582739 12.303592 -16.370780 -0.016412 -0.033070 -52.623510 0.000001 0.000001 0.000002 0.000683 20.812473 -16.406936 -0.017064 -0.032020 -51.783861 -0.000001 -0.000003 -0.000000 0.000001 0.000001 0.000001 0.000001 0.000001 0.000001 -0.000000 0.000001 0.000001 -0.000001 -0.000003 0.000001 -0.000001 -0.000004 -0.000000 -0.000001 -0.000003 0.000001 -0.000001 -0.000003 0.000000 -9.349015 5.779417 -17.280920 -67.330748 -12.300698 42.244590 -3.020968 68.915174 3.295607 55.419274 21.145484 -46.217698 -4.453587 -7.293492 20.381129 0.000563 -8.684416 0.000691 0.000001 -0.000002 -0.000001 -0.000521 -0.006674 -8.932487 -0.000521 0.007218 6.265801 -0.000002 -0.000001 -0.000002 -0.000042 0.002629 3.005849 -0.000325 0.004849 6.344394 0.000001 0.000001 0.000001 2.546348 -5.987556 23.063911 -0.002732 0.015385 21.773007 -0.000001 -0.000001 -0.000000 8.673214 -16.457459 33.264531 -0.008744 0.026298 37.071538 0.000000 0.000002 -0.000002 -0.000000 0.000000 -0.000001 -0.000000 -0.000001 0.000000 -0.000000 0.000000 -0.000002 0.000000 -0.000001 -0.000000 0.000001 0.000000 0.000001 0.000000 -0.000001 -0.000000 0.000001 0.000000 0.000003 -0.000002 0.000001 0.000000 -0.000002 0.000001 0.000000 -0.000002 0.000001 0.000000 -0.000002 0.000001 0.000000 -0.000002 0.000001 0.000000 -0.000002 0.000001 0.000000 -0.000002 0.000001 0.000000 0.000001 -0.000001 -0.000000 0.000001 0.000001 0.000000 
0.265094 72.351509 8.285561 26.278390 9.572336 0.864219 0.000001 -0.000000 0.000000 -103.067213 -4.607619 0.011628 71.637421 12.611493 1.056514 17.632779 -0.534271 -4.536964 -0.000001 -0.000002 -0.000000 0.000000 -0.000000 0.000000 -85.981126 -12.174906 -0.058026 87.457567 -23.642903 5.712169 -28.800995 2.959350 -8.424296 0.000000 -0.000001 -0.000000 0.000003 -0.000001 0.000000 23.623953 4.754100 -0.901570 14.666597 0.416780 -0.558239 13.948109 0.468770 -0.522415 -1.306298 -1.251126 -0.310031 -1.306375 -1.251124 -0.310043 0.000001 -0.000000 0.000000 -1.306251 -1.251150 -0.310029 -1.306302 -1.251101 -0.310039 0.000001 -0.000000 -0.000000 0.000001 -0.000000 0.000000 -1.785589 7.898318 13.476277 -7.180642 -29.311607 -70.909658 -0.526707 -28.057620 -1.241659 -19.166064 -16.592616 -21.765677 -9.331548 3.471381 -7.771897 -3.526420 5.992580 -11.731757 0.000001 0.000000 -0.000003 2.950642 -12.213422 7.303446 -0.001899 -0.013104 -14.886857 -0.000001 0.000000 -0.000000 -0.428358 -3.917221 -6.247947 -0.001114 -0.009766 -15.259829 -0.000000 -0.000000 0.000000 3.582739 12.303599 -16.370789 -0.016411 -0.033073 -52.623513 -0.000001 0.000001 0.000002 0.000682 20.812476 -16.406937 -0.017064 -0.032021 -51.783865 -0.000004 -0.000003 0.000002 0.000000 0.000002 -0.000000 0.000000 0.000002 -0.000000 -0.000000 0.000002 -0.000001 -0.000001 0.000002 0.000002 -0.000001 0.000001 0.000001 -0.000001 0.000002 0.000002 -0.000001 0.000003 0.000001 -9.338645 6.172903 -17.305705 -67.457018 -11.673982 42.067630 -1.015040 69.199392 1.436777 55.749179 21.030281 -46.641504 -4.453586 -7.293488 20.381129 0.000562 -8.684420 0.000685 0.000000 -0.000003 0.000001 -0.000519 -0.006675 -8.932492 -0.000513 0.007217 6.265795 -0.000001 0.000000 -0.000001 -0.000043 0.002630 3.005847 -0.000323 0.004852 6.344390 0.000002 -0.000002 -0.000001 2.546348 -5.987559 23.063913 -0.002733 0.015387 21.773012 -0.000002 -0.000003 0.000001 8.673212 -16.457452 33.264524 -0.008743 0.026292 37.071538 0.000000 -0.000000 0.000001 -0.000000 -0.000001 0.000001 -0.000000 -0.000001 0.000000 -0.000000 -0.000001 0.000000 0.000000 0.000003 0.000001 0.000001 0.000003 0.000001 0.000000 0.000003 0.000001 0.000001 0.000003 0.000002 0.000000 -0.000001 -0.000001 0.000000 -0.000001 -0.000001 0.000000 -0.000001 -0.000001 0.000000 -0.000001 -0.000001 0.000000 -0.000001 -0.000001 0.000000 -0.000001 -0.000001 0.000000 -0.000001 -0.000001 -0.000003 -0.000000 0.000000 0.000001 -0.000000 0.000000 
-0.358834 71.724098 13.701077 26.303152 6.564204 1.647069 -0.000001 0.000000 -0.000000 -102.037036 -2.563560 1.283040 56.431747 13.261785 -0.522340 29.096063 -0.982844 -4.627010 0.000001 0.000001 -0.000000 0.000001 -0.000001 -0.000000 -80.661795 -13.708483 3.380386 89.418883 -23.673953 4.519027 -35.449242 3.137853 -6.702200 -0.000000 -0.000002 0.000000 0.000000 0.000000 -0.000000 23.746198 6.141690 -1.349526 14.633265 0.626648 -0.887241 13.910583 0.730812 -0.865773 -1.227308 -1.232827 -0.468289 -1.227303 -1.232825 -0.468291 -0.000001 0.000000 0.000000 -1.227346 -1.232823 -0.468292 -1.227261 -1.232815 -0.468295 0.000001 -0.000001 0.000001 -0.000001 0.000000 0.000000 -1.756596 7.927509 13.321444 -7.304084 -29.563934 -70.974196 -0.299401 -27.889097 -1.206311 -19.162444 -16.272811 -21.934130 -9.331549 3.471377 -7.771896 -3.526423 5.992580 -11.731757 0.000003 -0.000002 -0.000001 2.950642 -12.213427 7.303449 -0.001898 -0.013106 -14.886860 -0.000000 0.000002 0.000002 -0.428359 -3.917225 -6.247945 -0.001116 -0.009765 -15.259829 -0.000000 0.000001 0.000002 3.582739 12.303599 -16.370782 -0.016412 -0.033075 -52.623510 0.000001 -0.000001 0.000001 0.000683 20.812476 -16.406936 -0.017064 -0.032015 -51.783865 -0.000003 -0.000005 0.000001 0.000001 -0.000003 0.000001 0.000001 -0.000003 0.000001 0.000000 -0.000003 0.000000 0.000000 -0.000003 -0.000000 0.000000 -0.000003 0.000000 0.000000 -0.000003 -0.000000 0.000000 -0.000002 -0.000001 -9.326171 6.673243 -17.427135 -67.163989 -11.522596 42.097898 0.633747 69.289783 -0.121283 56.061479 21.244972 -46.926863 -4.453584 -7.293489 20.381126 0.000561 -8.684418 0.000694 -0.000000 -0.000006 0.000000 -0.000517 -0.006675 -8.932490 -0.000516 0.007220 6.265792 -0.000001 0.000002 -0.000001 -0.000039 0.002631 3.005847 -0.000323 0.004851 6.344391 -0.000000 0.000002 -0.000002 2.546351 -5.987558 23.063911 -0.002731 0.015387 21.773009 -0.000001 -0.000001 0.000002 8.673217 -16.457454 33.264527 -0.008743 0.026296 37.071535 0.000000 -0.000000 0.000004 0.000002 0.000001 -0.000000 0.000002 0.000001 -0.000000 0.000002 0.000001 -0.000001 0.000000 -0.000001 -0.000000 0.000001 0.000000 0.000001 0.000000 -0.000001 -0.000000 0.000001 0.000000 0.000003 0.000000 0.000000 0.000001 0.000000 0.000000 0.000001 0.000000 0.000000 0.000001 0.000000 0.000000 0.000001 0.000000 0.000000 0.000001 0.000000 0.000000 0.000001 0.000000 0.000000 0.000001 0.000003 0.000001 -0.000000 -0.000001 0.000000 -0.000000 
-1.232340 71.241867 19.542877 26.813965 3.882168 2.533621 -0.000001 0.000000 0.000000 -97.493881 0.035733 2.518456 36.441119 16.347733 -1.592105 44.136655 -1.887087 -5.050074 -0.000000 0.000001 0.000000 0.000006 -0.000001 -0.000000 -74.435798 -14.425706 6.566959 90.253546 -23.513616 3.523204 -41.734163 3.175419 -5.168279 -0.000000 0.000001 -0.000000 0.000003 -0.000002 0.000001 23.561672 7.351689 -2.044903 14.381141 0.848368 -1.224307 13.655339 0.992424 -1.216565 -1.098600 -1.232499 -0.678865 -1.098590 -1.232496 -0.678869 -0.000002 -0.000000 0.000000 -1.098588 -1.232508 -0.678868 -1.098561 -1.232478 -0.678870 0.000003 -0.000000 0.000001 -0.000002 -0.000000 -0.000000 -1.712733 7.985955 13.086251 -6.888566 -29.656272 -70.696495 0.095392 -27.726265 -1.148737 -19.081240 -16.129488 -21.498131 -9.331548 3.471382 -7.771903 -3.526426 5.992583 -11.731752 0.000001 0.000005 -0.000007 2.950643 -12.213424 7.303444 -0.001900 -0.013104 -14.886860 0.000001 -0.000001 -0.000001 -0.428357 -3.917221 -6.247948 -0.001114 -0.009766 -15.259826 0.000000 0.000002 0.000004 3.582741 12.303600 -16.370787 -0.016413 -0.033072 -52.623507 0.000008 -0.000001 -0.000001 0.000683 20.812476 -16.406939 -0.017068 -0.032018 -51.783861 0.000001 0.000000 0.000000 0.000001 -0.000004 -0.000001 0.000001 -0.000004 -0.000001 0.000000 -0.000004 -0.000002 -0.000000 0.000003 0.000001 -0.000000 0.000002 0.000001 -0.000000 0.000003 0.000001 -0.000000 0.000003 0.000000 -9.310428 7.253746 -17.716181 -66.414806 -11.959347 42.235250 1.301140 69.103093 -0.798378 56.243090 21.763409 -46.957796 -4.453587 -7.293489 20.381134 0.000561 -8.684415 0.000691 0.000001 -0.000003 -0.000001 -0.000519 -0.006676 -8.932488 -0.000515 0.007216 6.265794 -0.000001 -0.000000 -0.000001 -0.000040 0.002628 3.005846 -0.000323 0.004852 6.344391 0.000000 0.000001 0.000000 2.546349 -5.987559 23.063915 -0.002733 0.015382 21.773009 -0.000000 0.000001 -0.000001 8.673213 -16.457457 33.264527 -0.008745 0.026298 37.071538 -0.000001 0.000005 -0.000000 0.000001 0.000000 0.000000 0.000001 0.000000 0.000000 0.000001 0.000000 0.000001 0.000001 0.000001 -0.000001 0.000002 0.000002 -0.000001 0.000001 0.000001 -0.000001 0.000002 0.000002 0.000000 0.000000 -0.000000 -0.000000 0.000000 -0.000000 -0.000000 0.000000 -0.000000 -0.000000 0.000000 -0.000000 -0.000000 0.000000 -0.000000 -0.000000 0.000000 -0.000000 -0.000000 0.000000 -0.000000 -0.000000 -0.000000 0.000000 -0.000000 -0.000001 0.000000 0.000000 
